<svg width="205" height="54" viewBox="0 0 205 54" version="1.1" xmlns="http://www.w3.org/2000/svg" xmlns:xlink="http://www.w3.org/1999/xlink">
<title>Logo</title>
<desc>Created using Figma</desc>
<g id="Canvas" transform="translate(-8341 -3382)">
<g id="Logo">
<g id="Group">
<g id="Vector">
<use xlink:href="#path0_fill" transform="translate(8362.36 3400.07)" fill="#FFFFFF"/>
</g>
<g id="Vector">
<use xlink:href="#path1_fill" transform="translate(8373 3400.07)" fill="#FFFFFF"/>
</g>
<g id="Vector">
<use xlink:href="#path2_fill" transform="translate(8341 3382)" fill="#FFFFFF"/>
</g>
<g id="Vector">
<use xlink:href="#path3_fill" transform="translate(8365.89 3406.35)" fill="#FFFFFF"/>
</g>
<g id="Vector">
<use xlink:href="#path4_fill" transform="translate(8354.11 3421.62)" fill="#FFFFFF"/>
</g>
</g>
<g id="Group">
<g id="Vector">
<use xlink:href="#path5_fill" transform="translate(8410.88 3395.92)" fill="#FFFFFF"/>
</g>
<g id="Vector">
<use xlink:href="#path6_fill" transform="translate(8436.78 3401.85)" fill="#FFFFFF"/>
</g>
<g id="Vector">
<use xlink:href="#path7_fill" transform="translate(8452.88 3401.91)" fill="#FFFFFF"/>
</g>
<g id="Vector">
<use xlink:href="#path8_fill" transform="translate(8467.51 3402.14)" fill="#FFFFFF"/>
</g>
<g id="Vector">
<use xlink:href="#path9_fill" transform="translate(8484.65 3395.65)" fill="#FFFFFF"/>
</g>
<g id="Vector">
<use xlink:href="#path10_fill" transform="translate(8505.18 3395.78)" fill="#FFFFFF"/>
</g>
<g id="Vector">
<use xlink:href="#path11_fill" transform="translate(8520.86 3401.85)" fill="#FFFFFF"/>
</g>
<g id="Vector">
<use xlink:href="#path12_fill" transform="translate(8535.4 3397.41)" fill="#FFFFFF"/>
</g>
</g>
</g>
</g>
<defs>
<path id="path0_fill" d="M 2.58437 1.28746C 2.58437 2.01838 1.99701 2.57388 1.29218 2.57388C 0.557992 2.57388 6.67743e-14 1.98914 6.67743e-14 1.28746C 6.67743e-14 0.556546 0.58736 0.00105057 1.29218 0.00105057C 1.99701 -0.0281861 2.58437 0.556546 2.58437 1.28746Z"/>
<path id="path1_fill" d="M 2.58435 1.28641C 2.58435 0.555495 1.99699 0 1.29217 0C 0.557978 0 -1.43397e-05 0.584732 -1.43397e-05 1.28641C -1.43397e-05 2.01733 0.587346 2.57283 1.29217 2.57283C 1.99699 2.57283 2.58435 1.98809 2.58435 1.28641Z"/>
<path id="path2_fill" d="M 44.3887 47.5973C 47.5604 47.5973 50.7615 46.3986 53.2284 44.0304L 53.2577 44.0012C 53.2871 43.972 53.3165 43.9427 53.3458 43.9135C 56.2532 40.8437 57.1343 36.3704 55.5484 32.4527C 54.6968 30.3477 53.0522 28.6812 50.9377 27.7749C 48.8232 26.8685 46.4738 26.8685 44.3594 27.7164C 40.8352 29.1197 39.1319 33.1252 40.5416 36.6336C 40.8352 37.3645 41.6869 37.7446 42.4505 37.4522C 43.1847 37.1598 43.5664 36.312 43.2727 35.5518C 42.4504 33.5345 43.4489 31.2248 45.4753 30.4062C 48.3827 29.2367 51.6719 30.64 52.8466 33.5345C 53.9919 36.3412 53.3752 39.6157 51.2607 41.8377L 51.2314 41.8669C 47.3842 45.6092 41.217 45.5508 37.458 41.7208C 34.1394 38.3293 33.7576 32.9205 36.6063 29.149C 36.6944 29.0613 37.0174 28.652 37.3405 28.3304C 38.9557 26.5177 40.5709 24.6758 41.2758 23.4771C 42.891 20.6996 43.8014 17.5712 43.8014 14.7061C 43.8014 12.7764 43.4196 10.9053 42.656 9.15108C 42.891 8.06933 43.6839 5.02871 44.4181 2.3097C 44.5649 1.81268 44.4181 1.28641 44.0657 0.935572C 43.7133 0.555495 43.1846 0.409314 42.6854 0.52626C 39.9542 1.11099 36.9293 1.72497 35.8427 1.90039C 33.4933 0.643211 30.8209 3.56893e-06 28.119 3.56893e-06C 19.4556 3.56893e-06 12.4367 6.60749 12.4367 14.7353C 12.4367 17.6005 13.3471 20.7288 14.9623 23.5063C 15.6378 24.6758 17.253 26.5177 18.8682 28.3304C 19.1913 28.6812 19.5437 29.0613 19.6024 29.1782C 22.4804 33.0375 22.128 38.3001 18.7507 41.75C 16.93 43.5919 14.4925 44.6444 11.9081 44.6737C 9.32375 44.7029 6.88623 43.7381 5.03607 41.9547L 5.00671 41.9254C 2.92161 39.7034 2.30487 36.4289 3.45021 33.593C 4.0082 32.1896 5.09481 31.1078 6.50445 30.5231C 7.88473 29.9384 9.4412 29.9091 10.8508 30.4939C 12.8772 31.3125 13.8757 33.6222 13.0534 35.6395C 12.7597 36.3997 13.1122 37.2475 13.8757 37.5399C 14.6393 37.8323 15.4909 37.4814 15.7846 36.7213C 17.1943 33.2129 15.4909 29.2074 11.9668 27.8041C 9.85236 26.9562 7.50294 26.9562 5.38847 27.8626C 3.274 28.7689 1.62942 30.4062 0.777763 32.5404C -0.778723 36.3997 0.0435643 40.8729 2.86286 43.9135L 2.89222 43.9427C 2.92159 43.972 2.95097 44.0012 2.98034 44.0304C 5.38848 46.3986 8.58955 47.6558 11.9668 47.6266C 15.3441 47.5973 18.5158 46.2524 20.8652 43.8258C 22.9797 41.6623 24.2719 38.8263 24.4481 35.7857C 24.6243 32.8036 23.7432 29.8507 21.9812 27.4533C 21.8637 27.2778 21.6288 27.0147 21.1002 26.43C 20.0723 25.2605 18.134 23.097 17.5467 22.0737C 16.1664 19.7348 15.4028 17.1327 15.4028 14.7645C 15.4028 8.24475 21.1295 2.9529 28.1778 2.9529C 30.5565 2.9529 32.8766 3.56687 34.8736 4.7071C 35.1085 4.85329 35.3728 4.91176 35.6665 4.91176C 36.2832 4.88253 38.8676 4.38551 41.0408 3.91772C 40.4534 6.11047 39.778 8.71253 39.7193 9.23879C 39.6899 9.50192 39.7486 9.76505 39.8661 9.99895C 40.5709 11.49 40.9527 13.098 40.9527 14.7645C 40.9527 17.1327 40.1891 19.7348 38.8089 22.0737C 38.2215 23.097 36.2539 25.2897 35.226 26.43C 34.6974 27.0147 34.4624 27.2778 34.345 27.4533C 32.5535 29.8507 31.6725 32.8036 31.8487 35.7857C 32.0249 38.7971 33.3171 41.6623 35.4316 43.8258C 37.8104 46.3109 41.0995 47.5973 44.3887 47.5973Z"/>
<path id="path3_fill" d="M 3.37728 1.72496C 5.31554 1.72496 6.10848 0.964807 6.10848 0.526257C 6.10848 0.0877065 5.75605 1.66191e-14 5.31554 1.66191e-14L 0.822308 1.66191e-14C 0.381794 1.66191e-14 0 0.0877065 0 0.526257C 0 0.964807 0.851669 1.72496 2.76057 1.72496L 3.37728 1.72496Z"/>
<path id="path4_fill" d="M 28.2517 14.3844C 29.0446 14.3844 29.72 13.7412 29.72 12.9226C 29.72 12.1332 29.074 11.4608 28.2517 11.4608C 25.7848 11.4608 22.7599 10.2913 20.3812 8.4494C 18.8834 7.27994 16.3578 4.79482 16.3578 1.46184C 16.3578 0.672448 15.7117 3.56893e-06 14.8894 3.56893e-06L 14.8307 3.56893e-06C 14.0377 3.56893e-06 13.3623 0.643211 13.3623 1.46184C 13.3623 4.79482 10.8366 7.27994 9.33889 8.4494C 6.96012 10.3206 3.93527 11.4608 1.46839 11.4608C 0.675463 11.4608 7.16983e-06 12.104 7.16983e-06 12.9226C 7.16983e-06 13.712 0.646095 14.3844 1.46839 14.3844C 4.61073 14.3844 8.22295 13.0103 11.1597 10.7299C 12.7456 9.47269 14.0084 8.06933 14.86 6.57826C 15.7411 8.06933 16.9745 9.50192 18.5603 10.7299C 21.4971 13.0103 25.1093 14.3844 28.2517 14.3844Z"/>
<path id="path5_fill" d="M 20.4105 0.0292349C 20.0875 0.0292349 19.8232 0.0584769 19.6176 0.11695C 19.3826 0.20466 19.1771 0.40931 19.0302 0.730914L 12.2757 13.0396C 12.1288 13.3319 11.982 13.6243 11.8352 13.9459C 11.7764 14.0628 11.7471 14.1798 11.6883 14.2967C 11.6296 14.1798 11.6002 14.0628 11.5415 13.9751C 11.3946 13.6828 11.2772 13.3612 11.101 13.0688L 4.25829 0.730914C 4.08209 0.380073 3.87652 0.175424 3.64158 0.11695C 3.43601 0.0584769 3.20108 0.0292349 2.84867 0.0292349L -1.43397e-05 0.0292349L -1.43397e-05 21.7521L 3.5535 21.7521L 3.5535 6.95833C 3.5535 6.78291 3.5535 6.6075 3.5535 6.40284L 9.95562 18.039C 10.2493 18.653 10.7486 18.9454 11.3946 18.9454L 11.8939 18.9454C 12.54 18.9454 13.0392 18.6238 13.3329 18.039L 19.6469 6.43207C 19.6469 6.60749 19.6469 6.78291 19.6469 6.9291L 19.6469 21.7229L 23.2004 21.7229L 23.2004 -3.56893e-06L 20.4105 -3.56893e-06L 20.4105 0.0292349Z"/>
<path id="path6_fill" d="M 11.2478 1.69573C 10.7779 1.16947 10.1612 0.730919 9.45637 0.438552C 8.75155 0.146185 7.92927 1.78447e-06 7.04824 1.78447e-06C 4.58136 1.78447e-06 2.40814 0.877099 0.646081 2.57283L 1.32155 3.77153C 1.43902 3.97619 1.58586 4.12238 1.76207 4.26856C 2.17321 4.59016 2.84868 4.56092 3.34793 4.21008C 3.58287 4.0639 3.84716 3.88848 4.14084 3.71306C 4.43451 3.53764 4.78692 3.39146 5.19807 3.24528C 5.57985 3.09909 6.0791 3.04062 6.66645 3.04062C 7.48874 3.04062 8.10548 3.27451 8.51662 3.74229C 8.92777 4.23932 9.1627 4.97024 9.1627 5.99352L 9.1627 6.75368C 7.54748 6.81215 6.13784 6.95833 5.02187 7.2507C 3.81779 7.54306 2.84865 7.92315 2.11446 8.3617C 1.38027 8.82948 0.822287 9.35574 0.499243 9.94048C 0.176199 10.5252 7.16984e-06 11.1392 7.16984e-06 11.7531C 7.16984e-06 12.4548 0.117463 13.098 0.352405 13.6243C 0.587346 14.1506 0.910404 14.6183 1.32155 14.9692C 1.7327 15.32 2.23195 15.6124 2.78993 15.7878C 3.34792 15.9632 3.93526 16.0509 4.58135 16.0509C 5.13934 16.0509 5.66797 15.9925 6.13785 15.9048C 6.60773 15.817 7.07761 15.6709 7.48876 15.4662C 7.8999 15.2616 8.31104 15.0277 8.69282 14.7645C 8.9865 14.5599 9.25081 14.326 9.54449 14.0921L 9.77941 14.9692C 9.89688 15.32 10.0731 15.5247 10.2787 15.6709C 10.4843 15.7878 10.7485 15.8463 11.101 15.8463L 12.7749 15.8463L 12.7749 6.05199C 12.7749 5.17489 12.6574 4.35627 12.3931 3.62535C 12.0995 2.8652 11.7177 2.22199 11.2478 1.69573ZM 9.13334 9.26803L 9.13334 11.6947C 8.60472 12.2209 8.0761 12.6302 7.51812 12.9226C 6.96013 13.215 6.28467 13.3612 5.49174 13.3612C 5.19807 13.3612 4.90441 13.3319 4.66947 13.2735C 4.43453 13.215 4.22893 13.098 4.05272 12.9519C 3.87651 12.8057 3.75907 12.6303 3.6416 12.4256C 3.5535 12.2209 3.49476 11.9286 3.49476 11.607C 3.49476 11.2854 3.58284 11.0222 3.75904 10.7299C 3.93525 10.4667 4.25832 10.2328 4.69883 10.0282C 5.16871 9.82353 5.78541 9.64811 6.54897 9.50193C 7.25379 9.38498 8.10547 9.29726 9.13334 9.26803Z"/>
<path id="path7_fill" d="M 12.0114 1.66649C 11.5708 1.14023 10.9835 0.730914 10.3374 0.438547C 9.69133 0.14618 8.89839 -3.56893e-06 8.04673 -3.56893e-06C 7.51811 -3.56893e-06 6.9895 0.0584716 6.54898 0.175418C 6.0791 0.292365 5.63859 0.43855 5.22744 0.643207C 4.81629 0.847864 4.43451 1.08176 4.08209 1.37412C 3.84715 1.54954 3.61221 1.7542 3.37726 1.95886L 3.23043 1.02328C 3.08359 0.526257 2.70182 0.233895 2.1732 0.233895L 0.234941 0.233895C 0.0881029 0.233895 -1.43397e-05 0.350838 -1.43397e-05 0.467785L -1.43397e-05 15.7586L 3.67094 15.7586L 3.67094 6.05199C 3.67094 4.97024 4.25831 3.94695 5.22744 3.44993L 5.2568 3.44993C 5.81479 3.15756 6.46089 2.98214 7.10698 2.98214C 7.988 2.98214 8.63409 3.21604 9.04523 3.7423C 9.48575 4.26856 9.69131 4.99948 9.69131 5.93505L 9.69131 15.7586L 13.3623 15.7586L 13.3623 5.93505C 13.3623 5.05795 13.2448 4.26855 13.0392 3.53764C 12.8043 2.83596 12.4812 2.19275 12.0114 1.66649Z"/>
<path id="path8_fill" d="M 15.4079 1.78447e-06L 12.853 1.78447e-06C 12.5887 1.78447e-06 12.3831 0.0877083 12.1775 0.233892C 11.9719 0.380075 11.8251 0.555494 11.737 0.789387L 8.27158 9.3265C 8.18348 9.5604 8.09541 9.82353 8.0073 10.0574C 7.94857 9.82353 7.86045 9.58963 7.77235 9.3265L 4.16011 0.789387C 4.07201 0.58473 3.95456 0.409314 3.77836 0.26313C 3.60215 0.0877101 3.33785 0.0292403 3.0148 0.0292403L 0.254239 0.0292403C 0.166136 0.0292403 0.107379 0.0584751 0.0486436 0.146185C -0.0100917 0.204659 -0.0100846 0.292365 0.0192831 0.380075L 6.12777 14.2967L 3.39656 20.2026C 3.36719 20.2903 3.36719 20.378 3.42592 20.4364C 3.48466 20.4949 3.54341 20.5534 3.63152 20.5534L 5.98093 20.5534C 6.36271 20.5534 6.65639 20.4657 6.8326 20.2903C 7.0088 20.1441 7.15563 19.9394 7.30247 19.6763L 15.6135 0.350837C 15.6429 0.263127 15.6429 0.17542 15.5841 0.116947C 15.5548 0.0292367 15.496 1.78447e-06 15.4079 1.78447e-06Z"/>
<path id="path9_fill" d="M 17.0039 17.1035C 16.6221 16.6941 16.0641 16.6941 15.5649 17.1327C 15.2418 17.4251 14.8894 17.6882 14.5663 17.8929C 14.2433 18.0975 13.8615 18.2729 13.4798 18.4191C 13.098 18.5653 12.6868 18.653 12.2463 18.7115C 11.7764 18.77 11.2772 18.7992 10.6898 18.7992C 9.75007 18.7992 8.86903 18.6238 8.07611 18.3022C 7.28318 17.9513 6.57834 17.4543 5.96162 16.8111C 5.37426 16.1679 4.87504 15.3493 4.55199 14.4137C 4.19958 13.4781 4.02336 12.3671 4.02336 11.1684C 4.02336 9.96971 4.19959 8.85872 4.52263 7.92314C 4.84567 6.98757 5.31554 6.16894 5.9029 5.52573C 6.49025 4.88252 7.19506 4.38551 8.01735 4.03467C 8.83965 3.68383 9.75006 3.5084 10.7192 3.5084C 11.5709 3.5084 12.2757 3.59611 12.8337 3.77153C 13.3916 3.94695 13.8909 4.15161 14.2433 4.35626C 14.6251 4.56092 14.9481 4.76558 15.1831 4.941C 15.7704 5.35031 16.2697 5.32107 16.5927 5.08718C 16.7102 4.99947 16.8277 4.88253 16.9451 4.73635L 18.2079 2.95291C 17.2975 2.04657 16.1816 1.31565 14.9187 0.760154C 13.7147 0.26313 12.305 -1.78447e-06 10.7486 -1.78447e-06C 9.1627 -1.78447e-06 7.69431 0.263134 6.40213 0.818631C 5.08059 1.37413 3.93526 2.13428 2.99549 3.09909C 2.05573 4.0639 1.32154 5.2626 0.792919 6.60749C 0.264302 7.95238 7.16983e-06 9.47268 7.16983e-06 11.0807C 7.16983e-06 12.6887 0.234948 14.209 0.734198 15.5539C 1.23345 16.8988 1.93826 18.0975 2.84865 19.0623C 3.75905 20.0564 4.87504 20.8165 6.16721 21.372C 7.45939 21.9275 8.89839 22.1906 10.4842 22.1906C 12.2757 22.1906 13.8322 21.8983 15.1243 21.3135C 16.4753 20.6996 17.6499 19.8225 18.5603 18.6822L 17.0039 17.1035Z"/>
<path id="path10_fill" d="M 12.0113 7.79352C 11.5708 7.26726 10.9835 6.85794 10.3374 6.56557C 9.69132 6.27321 8.89838 6.12702 8.04672 6.12702C 7.01885 6.12702 6.10847 6.33168 5.34491 6.71176C 4.75756 7.00412 4.17022 7.38421 3.67097 7.852L 3.67097 1.06908L 0.969125 0.0457958C 0.499243 -0.129624 1.43397e-05 0.221212 1.43397e-05 0.718236L 1.43397e-05 21.9148L 3.67097 21.9148L 3.67097 12.2375C 3.67097 11.1265 4.28766 10.1325 5.25679 9.6062C 5.81478 9.31383 6.46088 9.13841 7.10697 9.13841C 7.988 9.13841 8.63408 9.3723 9.04523 9.89856C 9.48574 10.4248 9.69133 11.1557 9.69133 12.0913L 9.69133 21.9148L 13.3623 21.9148L 13.3623 12.0913C 13.3623 11.2142 13.2448 10.4248 13.0392 9.6939C 12.8043 8.96299 12.4519 8.31978 12.0113 7.79352Z"/>
<path id="path11_fill" d="M 11.2478 1.69573C 10.7779 1.16947 10.1612 0.730919 9.45639 0.438552C 8.75156 0.146185 7.92925 1.78447e-06 7.04822 1.78447e-06C 4.58134 1.78447e-06 2.40815 0.877099 0.646095 2.57283L 1.32153 3.77153C 1.439 3.97619 1.58584 4.12238 1.76204 4.26856C 2.17319 4.59016 2.84865 4.56092 3.3479 4.21008C 3.58285 4.0639 3.84718 3.88848 4.14085 3.71306C 4.43453 3.53764 4.78693 3.39146 5.19808 3.24528C 5.57986 3.09909 6.07911 3.04062 6.66646 3.04062C 7.48876 3.04062 8.10546 3.27451 8.5166 3.74229C 8.92775 4.23932 9.16271 4.97024 9.16271 5.99352L 9.16271 6.75368C 7.54749 6.81215 6.13785 6.95833 5.02188 7.2507C 3.81781 7.54306 2.84867 7.92315 2.11448 8.3617C 1.38029 8.82948 0.822301 9.35574 0.499257 9.94048C 0.176213 10.5252 -1.43397e-05 11.1392 -1.43397e-05 11.7531C -1.43397e-05 12.4548 0.117478 13.098 0.352419 13.6243C 0.58736 14.1506 0.910383 14.6183 1.32153 14.9692C 1.73268 15.32 2.23193 15.6124 2.78991 15.7878C 3.3479 15.9632 3.93528 16.0509 4.58137 16.0509C 5.13935 16.0509 5.66795 15.9925 6.13783 15.9048C 6.60771 15.817 7.07759 15.6709 7.48873 15.4662C 7.89988 15.2616 8.31106 15.0277 8.69284 14.7645C 8.98651 14.5599 9.25079 14.326 9.54447 14.0921L 9.77943 14.9692C 9.8969 15.32 10.0731 15.5247 10.2787 15.6709C 10.4842 15.7878 10.7486 15.8463 11.101 15.8463L 12.7749 15.8463L 12.7749 6.05199C 12.7749 5.17489 12.6575 4.35627 12.3932 3.62535C 12.0995 2.8652 11.7177 2.22199 11.2478 1.69573ZM 9.13335 9.26803L 9.13335 11.6947C 8.60473 12.2209 8.07612 12.6302 7.51813 12.9226C 6.96015 13.215 6.28468 13.3612 5.49176 13.3612C 5.19808 13.3612 4.90439 13.3319 4.66945 13.2735C 4.43451 13.215 4.22894 13.098 4.05273 12.9519C 3.87653 12.8057 3.75905 12.6303 3.64158 12.4256C 3.55348 12.2209 3.49474 11.9286 3.49474 11.607C 3.49474 11.2854 3.58285 11.0222 3.75906 10.7299C 3.93526 10.4667 4.25829 10.2328 4.69881 10.0282C 5.16869 9.82353 5.78543 9.64811 6.54898 9.50193C 7.25381 9.38498 8.13485 9.29726 9.13335 9.26803Z"/>
<path id="path12_fill" d="M 9.54447 17.2496C 9.33889 16.8988 9.0746 16.8403 8.89839 16.8403C 8.75156 16.8403 8.63412 16.8988 8.48728 16.9865C 8.39917 17.045 8.28167 17.1035 8.1642 17.1912C 8.04673 17.2496 7.89992 17.3081 7.75309 17.3666C 7.60625 17.4251 7.43 17.4543 7.19506 17.4543C 6.81328 17.4543 6.5196 17.3374 6.31403 17.1035C 6.07909 16.8696 5.99099 16.5187 5.99099 16.0217L 5.99099 7.71848L 10.1905 7.71848L 10.1905 4.941L 5.99099 4.941L 5.99099 -1.78447e-06L 4.11146 -1.78447e-06C 3.84715 -1.78447e-06 3.64159 0.0584752 3.46538 0.204659C 3.31854 0.350842 3.20108 0.52626 3.14234 0.760154L 2.46687 4.941L 0.205581 5.2626C 0.0881101 5.29184 -1.43397e-05 5.37955 -1.43397e-05 5.4965L -1.43397e-05 6.78291C -1.43397e-05 7.07528 0.0880957 7.30917 0.264302 7.48459C 0.440507 7.63078 0.646074 7.71848 0.881015 7.71848L 2.29068 7.71848L 2.29068 16.2264C 2.29068 17.5712 2.64307 18.6238 3.37726 19.3547C 4.11146 20.1148 5.13932 20.4949 6.46087 20.4949C 7.19506 20.4949 7.92926 20.378 8.60472 20.1441C 9.36828 19.8809 10.0437 19.4716 10.6017 18.9746L 9.54447 17.2496Z"/>
</defs>
</svg>
